 <svg version="1.0" xmlns="http://www.w3.org/2000/svg"  width="300.000000pt" height="169.000000pt" viewBox="0 0 300.000000 169.000000"  preserveAspectRatio="xMidYMid meet">  <g transform="translate(0.000000,169.000000) scale(0.100000,-0.100000)" fill="#000000" stroke="none"> <path d="M2143 1223 c-57 -20 -137 -93 -158 -145 -21 -51 -21 -135 0 -185 14 -34 14 -34 -8 -26 -27 9 -70 10 -157 1 -36 -4 -96 -4 -135 0 l-70 7 -1 65 c-1 79 -26 141 -83 202 -42 46 -105 87 -117 75 -4 -3 20 -30 51 -59 84 -76 115 -129 115 -195 0 -45 -5 -58 -32 -88 -32 -38 -122 -95 -148 -95 -8 0 6 21 32 48 73 73 84 127 49 226 -24 69 -91 171 -91 138 0 -27 -2 -27 -68 -2 -29 11 -74 20 -102 20 -63 0 -149 -32 -189 -70 -40 -38 -51 -38 -51 3 0 55 -23 77 -81 77 -42 0 -55 -5 -79 -29 -16 -16 -32 -41 -35 -57 -14 -64 -22 -74 -62 -74 -53 0 -62 9 -67 63 -6 72 -38 107 -97 107 -26 0 -47 -8 -66 -24 -28 -24 -28 -25 -33 -178 -6 -198 -2 -236 30 -259 56 -41 153 18 166 100 7 47 14 50 74 42 l45 -6 5 -48 c7 -58 40 -95 93 -104 32 -5 41 -1 72 30 22 22 35 45 35 61 0 14 3 26 6 26 3 0 24 -16 46 -35 89 -75 236 -87 310 -25 l23 20 -44 -15 c-99 -34 -202 -13 -273 55 -53 52 -68 98 -49 161 48 160 302 198 407 61 61 -81 36 -108 -114 -118 -49 -4 -102 -3 -118 1 -27 7 -25 9 30 21 64 15 86 28 86 51 0 25 -150 14 -187 -13 -98 -73 39 -230 184 -210 80 11 85 25 10 26 -73 0 -113 15 -159 58 -32 29 -37 72 -12 96 21 22 25 20 18 -8 -5 -20 0 -27 27 -41 43 -23 198 -17 248 8 21 11 38 14 44 8 14 -14 -13 -77 -50 -121 -34 -39 -41 -64 -23 -75 11 -7 362 -10 480 -5 36 1 81 -1 102 -5 32 -6 38 -4 53 18 l16 25 38 -19 c21 -10 54 -21 72 -23 33 -6 33 -5 -12 18 -50 27 -114 93 -129 132 -16 42 -11 115 11 161 73 150 306 178 425 51 18 -18 39 -46 47 -63 12 -22 16 -25 17 -11 0 31 -49 110 -85 135 -19 13 -51 29 -72 37 -50 17 -157 16 -210 -3z m-1539 -39 c13 -13 16 -44 16 -180 0 -162 0 -165 -25 -189 -18 -18 -35 -25 -65 -25 l-40 0 0 187 c0 159 2 189 17 205 20 22 76 24 97 2z m339 -181 c-2 -104 -5 -194 -8 -200 -3 -8 -24 -13 -54 -13 -62 0 -71 13 -71 102 l0 63 -90 -3 -90 -3 0 40 0 41 90 0 90 0 0 45 c0 48 20 99 42 108 7 3 31 6 53 6 l40 1 -2 -187z m718 -184 c17 -12 28 -23 26 -25 -2 -2 -29 1 -60 7 -46 10 -65 9 -102 -3 -58 -20 -55 -3 6 30 50 26 84 24 130 -9z m81 14 c26 -3 62 0 80 6 l33 11 -33 -30 c-44 -40 -86 -40 -132 1 -23 20 -28 28 -15 24 11 -4 41 -10 67 -12z m216 3 c26 -13 71 -56 60 -56 -3 0 -25 7 -49 16 -42 15 -92 14 -136 -3 -31 -12 7 28 42 43 39 17 50 17 83 0z"/> <path d="M2217 1169 c-56 -13 -90 -33 -130 -78 -90 -99 -43 -261 88 -307 19 -6 19 -6 3 11 -13 14 -14 22 -5 36 16 26 -3 45 -31 30 -15 -8 -23 -7 -35 7 -20 23 -30 59 -20 74 4 7 8 35 8 63 0 44 3 51 28 63 15 7 27 19 27 26 0 17 54 40 74 33 10 -4 16 2 19 16 4 19 4 18 6 -5 1 -25 34 -48 48 -34 4 3 -1 6 -10 6 -21 0 -21 9 0 35 15 20 15 20 10 -2 -4 -19 -2 -21 29 -16 36 6 74 -16 74 -44 0 -7 11 -13 25 -13 30 0 74 -43 76 -74 1 -14 3 -16 6 -5 6 23 -44 106 -80 133 -60 43 -143 61 -210 45z m-129 -205 c-1 -9 -9 -19 -17 -22 -8 -3 -11 0 -7 6 3 6 2 14 -4 17 -8 5 -7 11 1 21 15 18 32 4 27 -22z"/> <path d="M1170 1134 c-40 -17 -67 -40 -82 -69 -6 -11 3 -5 19 12 37 39 71 54 143 63 l55 7 -50 1 c-27 1 -66 -6 -85 -14z"/> <path d="M2240 1037 c-37 -19 -39 -74 -5 -116 32 -37 44 -39 74 -7 27 29 37 85 19 108 -18 24 -58 31 -88 15z m68 -19 c17 -17 15 -36 -10 -76 l-21 -35 -24 29 c-37 47 -26 94 22 94 12 0 26 -5 33 -12z"/> <path d="M2256 1007 c-21 -15 -12 -47 14 -47 29 0 43 25 25 44 -20 19 -17 19 -39 3z"/> <path d="M553 665 c-13 -9 -23 -26 -23 -39 0 -33 -20 -55 -64 -70 -21 -7 -46 -25 -54 -39 -14 -23 -14 -27 1 -50 24 -37 79 -42 127 -12 21 13 51 27 67 31 15 4 33 10 38 13 8 5 250 11 330 8 11 0 44 0 73 0 30 1 52 -3 52 -9 0 -21 51 -58 79 -58 15 0 47 14 70 31 41 29 44 30 73 16 47 -23 114 9 92 44 -3 5 4 9 15 9 18 0 21 6 21 40 0 40 0 40 -40 40 -22 0 -40 -4 -40 -9 0 -12 -82 -12 -97 1 -7 6 -82 11 -180 12 -152 2 -172 4 -206 24 -48 28 -58 28 -86 -2 -28 -29 -66 -28 -110 3 -41 29 -110 37 -138 16z m111 -31 c25 -24 19 -53 -18 -90 -24 -24 -43 -34 -65 -34 -19 0 -39 -9 -56 -26 -29 -29 -71 -30 -89 -1 -14 24 15 47 59 47 28 0 35 6 59 50 22 40 24 50 12 50 -9 0 -16 5 -16 10 0 17 97 12 114 -6z m171 -31 c-15 -28 -22 -49 -16 -51 21 -7 11 -22 -14 -22 -14 0 -25 5 -25 10 0 24 52 110 66 110 13 0 11 -9 -11 -47z m65 17 c0 -6 -7 -24 -15 -40 -14 -27 -14 -30 0 -30 8 0 15 -4 15 -10 0 -5 -13 -10 -30 -10 -35 0 -37 11 -9 51 11 16 18 29 14 29 -3 0 -3 5 0 10 8 13 25 13 25 0z m251 -20 c25 0 24 -16 -1 -23 -28 -7 -25 -27 3 -27 16 0 28 9 35 25 6 14 16 25 22 25 13 0 13 -6 0 -31 -8 -14 -7 -19 3 -19 8 0 19 11 25 25 6 14 15 25 20 25 19 0 20 -13 4 -38 -12 -19 -13 -27 -4 -30 18 -6 14 -22 -6 -22 -9 0 -23 -9 -30 -20 -14 -23 -64 -27 -81 -6 -15 18 9 39 45 39 16 0 21 2 14 7 -7 4 -29 5 -50 3 -41 -6 -59 9 -40 32 8 9 8 15 2 15 -6 0 -12 -6 -15 -12 -2 -7 -7 -10 -11 -6 -13 11 14 50 31 44 8 -3 23 -6 34 -6z m-391 -10 c18 -11 5 -27 -30 -33 -21 -4 -20 -4 8 -6 40 -1 43 -21 3 -21 -60 0 -75 18 -44 52 18 20 40 23 63 8z m174 -12 l-6 -23 26 24 c14 14 29 21 33 18 9 -9 -47 -67 -64 -67 -13 0 -19 51 -6 63 14 15 24 6 17 -15z m131 2 c0 -8 -13 -18 -30 -21 l-30 -7 33 -1 c17 0 32 -6 32 -12 0 -6 -16 -9 -37 -7 -41 3 -55 27 -32 54 15 19 64 14 64 -6z m335 -35 c0 -34 -1 -35 -40 -35 -39 0 -40 1 -40 35 0 34 1 35 40 35 39 0 40 -1 40 -35z"/> <path d="M585 581 c-25 -50 -25 -51 -5 -51 48 0 92 90 48 98 -12 2 -25 -12 -43 -47z"/> <path d="M465 501 c-3 -5 -1 -12 4 -15 12 -8 41 3 41 15 0 12 -37 12 -45 0z"/> </g> </svg> 