<?xml version="1.0" standalone="no"?>
<!DOCTYPE svg PUBLIC "-//W3C//DTD SVG 20010904//EN"
 "http://www.w3.org/TR/2001/REC-SVG-20010904/DTD/svg10.dtd">
<svg version="1.0" xmlns="http://www.w3.org/2000/svg"
 width="450.000000pt" height="253.000000pt" viewBox="0 0 450.000000 253.000000"
 preserveAspectRatio="xMidYMid meet">
<metadata>
Created by potrace 1.10, written by Peter Selinger 2001-2011
</metadata>
<g transform="translate(0.000000,253.000000) scale(0.100000,-0.100000)"
fill="#b02742" stroke="none">
<path d="M0 1265 l0 -1265 2250 0 2250 0 0 1265 0 1265 -2250 0 -2250 0 0
-1265z m3544 535 c26 -11 53 -17 58 -13 7 3 8 1 4 -6 -4 -6 0 -14 11 -18 26
-9 109 -99 127 -138 18 -37 20 -63 7 -84 -7 -11 -17 -2 -41 37 -34 56 -41 60
-60 37 -7 -8 -19 -15 -27 -15 -22 0 -27 29 -8 50 16 17 15 19 -9 35 -14 9 -31
18 -38 19 -7 2 -26 8 -41 14 -16 7 -34 12 -42 12 -15 0 -30 -34 -21 -49 10
-16 -20 -30 -58 -27 -43 4 -53 12 -58 46 -2 18 -8 24 -23 22 -39 -5 -84 -21
-112 -39 -20 -13 -21 -17 -8 -29 26 -26 7 -46 -36 -39 -32 6 -39 4 -39 -9 0
-9 -4 -16 -8 -16 -8 0 -32 -58 -32 -78 0 -6 6 -9 13 -6 24 9 50 -31 42 -65 -4
-17 -10 -31 -15 -31 -5 0 -16 -3 -25 -6 -11 -4 -7 3 9 19 22 23 25 30 16 48
-13 24 -43 22 -48 -4 -3 -12 4 -20 18 -24 l23 -6 -23 -17 -22 -17 20 -46 c28
-63 72 -119 88 -113 8 3 13 0 11 -6 -1 -7 22 -25 51 -41 60 -33 64 -46 6 -22
-165 68 -240 238 -171 388 110 241 499 264 634 37 37 -60 45 -52 12 11 -31 61
-102 127 -174 160 -197 93 -447 11 -530 -172 -24 -55 -27 -71 -23 -138 5 -88
21 -124 86 -194 61 -64 149 -109 225 -113 56 -4 57 -3 57 23 0 32 26 64 47 56
11 -4 9 -8 -9 -17 -31 -16 -32 -60 0 -64 16 -3 22 2 22 17 0 11 -8 25 -17 30
-20 11 -4 15 21 5 38 -15 3 -83 -36 -69 -7 2 -47 6 -88 8 -206 8 -366 196
-330 387 23 119 88 201 206 257 114 55 250 60 358 13z m-2650 10 c41 -15 57
-51 62 -142 3 -45 7 -89 9 -95 5 -14 145 -18 201 -7 26 5 29 9 28 45 -3 69 14
121 53 156 33 30 41 33 103 33 46 0 71 -5 79 -14 8 -10 12 -94 12 -286 0 -244
-2 -275 -18 -303 -30 -51 -130 -62 -187 -21 -27 21 -44 78 -44 154 0 25 -1 51
-1 58 -1 9 -31 12 -116 12 l-115 0 -1 -47 c0 -27 -2 -59 -5 -72 -13 -71 -80
-121 -161 -121 -85 0 -84 -4 -82 295 1 260 5 303 33 330 32 33 101 44 150 25z
m1269 -20 c124 -78 237 -248 237 -356 0 -39 -22 -99 -47 -126 -15 -17 -14 -18
19 -18 19 0 49 -5 67 -11 23 -8 35 -8 45 1 11 8 26 8 64 -4 55 -16 151 -15
196 3 18 7 33 8 40 2 7 -6 26 -6 52 1 58 16 126 -6 170 -55 46 -51 45 -71 -3
-64 -21 3 -58 10 -83 17 -28 7 -66 9 -100 4 -30 -4 -71 -8 -90 -10 -19 -2 -56
-6 -81 -10 -28 -4 -54 -2 -67 5 -15 8 -23 8 -27 0 -4 -6 -21 -8 -39 -5 -17 3
-58 11 -91 16 -61 12 -135 6 -169 -12 -13 -7 -26 -6 -42 3 -18 9 -30 10 -49 1
-35 -16 -82 -15 -88 1 -3 8 19 38 49 68 62 62 89 107 99 166 8 51 -3 129 -21
147 -7 8 -11 16 -8 18 7 8 -24 75 -67 145 -39 65 -45 84 -32 96 10 11 16 9 66
-23z m-177 -34 c46 -16 71 -33 124 -87 72 -72 88 -153 37 -190 -37 -27 -134
-43 -268 -43 -111 -1 -129 1 -148 18 -29 26 -15 39 61 56 69 15 111 33 101 43
-10 11 -141 8 -189 -4 -53 -14 -74 -40 -74 -92 0 -73 57 -146 144 -182 54 -23
153 -28 228 -12 37 8 73 18 80 23 7 4 5 -2 -6 -14 -10 -12 -22 -19 -26 -17 -4
3 -27 -2 -50 -10 -129 -46 -301 10 -364 117 -82 141 -12 223 191 223 104 0
129 -11 99 -44 -20 -22 -87 -47 -155 -57 -53 -8 -38 -19 40 -28 58 -7 256 10
296 25 62 23 61 88 -2 164 -142 174 -485 142 -587 -54 -70 -133 -12 -276 145
-358 48 -25 61 -28 167 -28 99 0 122 3 164 23 46 21 78 22 46 2 -53 -34 -129
-53 -210 -52 -101 1 -100 1 -171 34 -204 94 -255 310 -108 457 69 68 144 101
259 114 38 4 130 -10 176 -27z m36 -63 c32 -14 63 -32 69 -39 6 -7 -15 1 -47
18 -114 62 -272 45 -365 -39 -21 -19 -45 -54 -55 -79 -20 -51 -30 -54 -12 -3
18 56 63 103 124 133 101 50 187 52 286 9z m1456 -169 c27 -31 28 -49 2 -96
-25 -48 -51 -78 -67 -78 -20 0 -70 60 -83 100 -15 46 -2 76 43 96 41 17 76 10
105 -22z m292 -48 c0 -26 -6 -18 -14 19 -5 22 -4 26 4 15 5 -8 10 -24 10 -34z
m-650 -11 c0 -8 -7 -15 -15 -15 -16 0 -20 12 -8 23 11 12 23 8 23 -8z m659
-24 c7 -5 15 -25 17 -45 2 -27 -2 -38 -16 -46 -25 -14 -66 5 -52 23 5 7 8 23
7 37 -3 34 17 48 44 31z m-513 -162 c0 -12 -11 -28 -23 -36 -20 -13 -23 -13
-33 7 -10 18 -8 24 7 36 28 21 50 17 49 -7z m154 -105 c0 -8 -6 -14 -14 -14
-8 0 -14 8 -13 19 1 21 27 17 27 -5z m-2432 -198 c18 -9 38 -28 44 -42 9 -18
16 -23 32 -18 28 8 27 8 58 0 15 -4 29 -15 32 -23 6 -14 9 -14 26 2 11 10 20
22 20 28 0 23 43 67 66 67 13 0 24 -4 24 -9 0 -9 32 -24 52 -26 4 0 14 -9 22
-20 8 -11 18 -20 23 -21 4 0 16 -4 25 -8 9 -4 26 -2 38 4 15 8 25 8 35 0 9 -8
20 -7 39 1 19 9 35 9 61 2 29 -9 36 -8 51 8 12 14 21 16 35 9 10 -6 28 -10 41
-10 13 0 33 -6 43 -14 15 -10 23 -11 37 -2 13 8 23 8 36 -1 12 -7 24 -8 36 -1
23 13 66 2 66 -18 0 -8 -7 -28 -15 -45 -14 -27 -14 -31 0 -45 15 -15 14 -18
-1 -35 -9 -11 -25 -19 -34 -19 -9 0 -25 -10 -36 -21 -10 -12 -34 -28 -52 -36
-28 -12 -36 -11 -62 2 -34 17 -54 49 -47 74 7 28 -43 45 -78 27 -35 -19 -113
-12 -130 11 -12 16 -18 15 -61 -10 -14 -8 -77 -12 -196 -12 -153 0 -178 2
-195 17 -19 17 -20 17 -42 -6 -21 -22 -74 -42 -131 -48 -14 -2 -30 -13 -37
-28 -7 -14 -13 -21 -13 -16 0 4 -11 1 -25 -8 -44 -29 -124 -16 -145 24 -28 52
21 100 102 100 32 0 46 5 53 19 6 10 18 33 28 51 16 28 17 36 6 56 -10 20 -10
27 5 43 14 16 29 19 74 17 32 -1 72 -10 90 -20z m1192 -104 l0 -57 -32 0 c-29
0 -33 -3 -33 -28 -1 -16 -7 -32 -15 -38 -19 -11 -111 -12 -129 0 -8 5 -15 31
-17 61 -5 62 11 81 66 78 30 -3 35 0 38 20 3 20 9 22 63 22 l59 0 0 -58z"/>
<path d="M3357 1732 c6 -4 13 -21 16 -37 4 -27 4 -27 6 8 1 29 -3 37 -16 37
-12 0 -14 -3 -6 -8z"/>
<path d="M3423 1733 c21 -6 21 -12 1 -41 -14 -21 -14 -22 8 -22 17 0 19 3 9 9
-9 6 -10 11 -2 15 6 4 11 16 11 27 0 13 -6 19 -22 18 -17 -1 -19 -2 -5 -6z"/>
<path d="M3400 1705 c0 -8 2 -15 4 -15 2 0 6 7 10 15 3 8 1 15 -4 15 -6 0 -10
-7 -10 -15z"/>
<path d="M3160 1650 c0 -5 9 -14 20 -20 22 -12 27 -1 8 18 -14 14 -28 16 -28
2z"/>
<path d="M3620 1635 c-20 -24 -6 -28 15 -5 10 11 13 20 8 20 -6 0 -16 -7 -23
-15z"/>
<path d="M771 1774 l-31 -26 0 -284 0 -284 46 0 c58 0 105 22 127 59 15 25 17
61 17 264 0 130 -3 243 -6 252 -9 22 -56 45 -93 45 -17 0 -42 -11 -60 -26z"/>
<path d="M1278 1764 c-54 -29 -58 -51 -58 -307 0 -231 0 -234 23 -255 18 -17
36 -22 79 -22 49 0 59 3 77 26 20 26 21 39 21 300 l0 274 -57 0 c-32 -1 -70
-7 -85 -16z"/>
<path d="M940 1485 l0 -55 135 0 135 0 0 55 0 55 -135 0 -135 0 0 -55z"/>
<path d="M2151 1721 c94 -148 122 -283 78 -381 -11 -25 -47 -70 -81 -103 -34
-31 -59 -59 -56 -62 10 -11 116 36 172 76 146 105 148 257 3 416 -53 58 -142
133 -157 133 -5 0 13 -35 41 -79z"/>
<path d="M2327 1256 c-37 -14 -112 -65 -105 -72 2 -2 26 3 53 11 62 19 126 19
198 0 74 -19 74 -19 51 6 -46 52 -137 77 -197 55z"/>
<path d="M2511 1244 c31 -33 91 -64 124 -64 33 0 93 31 124 64 28 30 26 31
-22 11 -46 -19 -130 -19 -193 0 -27 8 -51 15 -53 15 -3 0 6 -12 20 -26z"/>
<path d="M2828 1256 c-35 -13 -96 -55 -97 -67 -1 -4 16 -1 37 7 53 19 121 17
194 -6 34 -11 65 -20 67 -20 16 0 -61 66 -94 81 -47 22 -58 22 -107 5z"/>
<path d="M3365 1515 c-14 -13 -25 -30 -25 -36 0 -16 60 -109 70 -109 12 0 70
94 70 113 0 20 -47 57 -72 57 -10 0 -30 -11 -43 -25z m83 -7 c19 -19 14 -46
-13 -64 -23 -15 -27 -15 -50 0 -43 28 -27 76 25 76 14 0 31 -5 38 -12z"/>
<path d="M3392 1483 c5 -26 33 -28 35 -3 1 14 -4 20 -18 20 -14 0 -19 -6 -17
-17z"/>
<path d="M3745 1430 c-4 -6 1 -10 11 -10 13 0 14 -3 4 -15 -9 -10 -9 -15 -1
-15 18 0 13 -18 -6 -23 -14 -4 -13 -5 4 -6 18 -1 21 5 21 33 0 34 -21 56 -33
36z"/>
<path d="M3230 1275 c-7 -9 -11 -18 -8 -20 3 -3 11 1 18 10 7 9 11 18 8 20 -3
3 -11 -1 -18 -10z"/>
<path d="M833 958 c2 -7 11 -12 21 -10 22 4 21 1 -25 -83 l-41 -75 -43 0 c-76
0 -116 -30 -95 -70 22 -42 105 -36 144 11 18 21 34 29 57 29 44 0 114 35 139
70 34 48 36 85 7 114 -23 23 -34 26 -97 26 -53 0 -71 -3 -67 -12z m118 -18
c57 -31 -16 -150 -92 -150 l-28 0 46 80 c25 44 47 80 50 80 2 0 13 -5 24 -10z
m-200 -201 c-28 -23 -54 -21 -59 4 -3 14 4 17 40 17 l43 -1 -24 -20z"/>
<path d="M923 908 c-18 -29 -41 -83 -36 -88 10 -10 53 52 53 76 0 27 -5 30
-17 12z"/>
<path d="M1238 948 c-23 -35 -68 -126 -68 -138 0 -5 18 -10 40 -10 22 0 40 5
40 10 0 6 -9 10 -20 10 -11 0 -20 2 -20 4 0 2 16 32 35 66 19 34 35 66 35 71
0 18 -28 9 -42 -13z"/>
<path d="M1315 931 c-8 -15 3 -31 21 -31 9 0 14 7 12 17 -4 20 -24 28 -33 14z"/>
<path d="M1636 885 c-26 -40 -15 -65 14 -30 18 21 32 19 19 -4 -20 -31 -4 -51
41 -51 22 0 40 5 40 10 0 6 -12 10 -26 10 -35 0 -28 30 11 50 l30 15 -42 3
c-24 2 -43 7 -43 13 0 18 -28 8 -44 -16z"/>
<path d="M1058 885 c-32 -18 -44 -50 -28 -70 14 -17 115 -21 125 -5 4 6 -13
10 -44 10 -28 0 -51 5 -51 10 0 6 10 8 24 4 50 -12 88 33 47 56 -26 13 -40 12
-73 -5z m52 -25 c0 -5 -9 -10 -21 -10 -11 0 -17 5 -14 10 3 6 13 10 21 10 8 0
14 -4 14 -10z"/>
<path d="M1431 868 l-33 -33 4 28 c4 21 1 27 -13 27 -12 0 -19 -11 -24 -40 -7
-42 -2 -60 18 -60 17 0 109 95 101 103 -12 11 -18 8 -53 -25z"/>
<path d="M1525 890 c-30 -12 -47 -36 -43 -62 3 -21 9 -23 66 -26 38 -2 62 1
62 8 0 5 -20 10 -45 10 -26 0 -45 5 -45 11 0 6 7 8 16 5 47 -18 88 30 45 54
-23 12 -29 12 -56 0z m40 -30 c-3 -5 -15 -10 -26 -10 -11 0 -17 5 -14 10 3 6
15 10 26 10 11 0 17 -4 14 -10z"/>
<path d="M1280 850 c-11 -21 -20 -42 -20 -45 0 -3 20 -5 45 -5 25 0 45 5 45
10 0 6 -11 10 -25 10 l-24 0 20 35 21 35 -21 0 c-14 0 -27 -13 -41 -40z"/>
<path d="M1777 854 c-21 -43 -16 -54 26 -55 22 -1 16 -4 -21 -9 -78 -12 -102
-39 -64 -73 30 -27 76 -21 105 12 13 16 36 31 51 33 33 4 39 22 9 26 l-21 3
24 42 c29 51 29 57 6 57 -11 0 -25 -14 -35 -35 -11 -23 -24 -35 -37 -35 -24 0
-25 8 -5 34 20 26 19 36 -3 36 -11 0 -25 -14 -35 -36z m23 -109 c-13 -16 -60
-21 -60 -7 0 15 13 22 43 22 25 0 28 -2 17 -15z"/>
<path d="M2114 874 c27 -43 45 -43 43 -1 -2 29 -5 32 -33 33 l-31 1 21 -33z"/>
<path d="M1980 815 l0 -55 60 0 60 0 0 55 0 55 -60 0 -60 0 0 -55z"/>
</g>
</svg>
